<?xml version="1.0" encoding="UTF-8" standalone="no"?>
<!-- Created with Inkscape (http://www.inkscape.org/) -->

<svg
   xmlns:dc="http://purl.org/dc/elements/1.1/"
   xmlns:cc="http://creativecommons.org/ns#"
   xmlns:rdf="http://www.w3.org/1999/02/22-rdf-syntax-ns#"
   xmlns:svg="http://www.w3.org/2000/svg"
   xmlns="http://www.w3.org/2000/svg"
   xmlns:sodipodi="http://sodipodi.sourceforge.net/DTD/sodipodi-0.dtd"
   xmlns:inkscape="http://www.inkscape.org/namespaces/inkscape"
   width="210mm"
   height="297mm"
   viewBox="0 0 210 297"
   version="1.1"
   id="svg8"
   inkscape:version="0.92.3 (2405546, 2018-03-11)"
   sodipodi:docname="inkscapeTests.svg">
  <sodipodi:namedview
     id="base"
     pagecolor="#ffffff"
     bordercolor="#666666"
     borderopacity="1.0"
     inkscape:pageopacity="0.0"
     inkscape:pageshadow="2"
     inkscape:zoom="1.979899"
     inkscape:cx="274.97543"
     inkscape:cy="1023.4675"
     inkscape:document-units="in"
     inkscape:current-layer="svg8"
     showgrid="false"
     inkscape:window-width="1920"
     inkscape:window-height="1017"
     inkscape:window-x="-8"
     inkscape:window-y="-8"
     inkscape:window-maximized="1"
     showguides="true">
    <inkscape:grid
       visible="true"
       type="xygrid"
       id="grid5586" />
  </sodipodi:namedview>
  <defs
     id="defs2" />
  <metadata
     id="metadata5">
    <rdf:RDF>
      <cc:Work
         rdf:about="">
        <dc:format>image/svg+xml</dc:format>
        <dc:type
           rdf:resource="http://purl.org/dc/dcmitype/StillImage" />
        <dc:title />
      </cc:Work>
    </rdf:RDF>
  </metadata>
  <g
     id="layer1"
     inkscape:groupmode="layer"
     inkscape:label="Layer 1">
    <path
       id="path13"
       inkscape:label="part"
       style="fill:none;stroke:#ff0000;stroke-width:0.08819444;stroke-miterlimit:4;stroke-dasharray:none;stroke-opacity:1"
       d="m 143.88671,7.0447131 h 4.064 v 0 h 8.128 v 0 h 8.636"
       inkscape:connector-curvature="0" />
    <path
       id="path15"
       inkscape:label="part"
       style="fill:none;stroke:#ff0000;stroke-width:0.08819444;stroke-miterlimit:4;stroke-dasharray:none;stroke-opacity:1"
       d="m 164.71471,7.0447131 v 4.5719999 h -4.572 v 7.112 h 4.572 v 4.572"
       inkscape:connector-curvature="0" />
    <path
       id="path17"
       inkscape:label="part"
       style="fill:none;stroke:#ff0000;stroke-width:0.08819444;stroke-miterlimit:4;stroke-dasharray:none;stroke-opacity:1"
       d="m 164.71471,23.300713 h -8.636 v 0 h -8.128 v 0 h -4.064"
       inkscape:connector-curvature="0" />
    <path
       id="path19"
       inkscape:label="part"
       style="fill:none;stroke:#ff0000;stroke-width:0.08819444;stroke-miterlimit:4;stroke-dasharray:none;stroke-opacity:1"
       d="m 143.88671,23.300713 v -4.064 0 -8.128 0 -4.0639999"
       inkscape:connector-curvature="0" />
    <path
       id="path21"
       inkscape:label="part"
       style="fill:none;stroke:#ff0000;stroke-width:0.08819444;stroke-miterlimit:4;stroke-dasharray:none;stroke-opacity:1"
       d="m 170.55671,7.0447131 h 4.064 v 0 h 8.128 v 0 h 4.064"
       inkscape:connector-curvature="0" />
    <path
       id="path23"
       inkscape:label="part"
       style="fill:none;stroke:#ff0000;stroke-width:0.08819444;stroke-miterlimit:4;stroke-dasharray:none;stroke-opacity:1"
       d="m 186.81271,7.0447131 v 4.0639999 0 8.128 0 4.064"
       inkscape:connector-curvature="0" />
    <path
       id="path25"
       inkscape:label="part"
       style="fill:none;stroke:#ff0000;stroke-width:0.08819444;stroke-miterlimit:4;stroke-dasharray:none;stroke-opacity:1"
       d="m 186.81271,23.300713 h -4.064 v 0 h -8.128 v 0 h -4.064"
       inkscape:connector-curvature="0" />
    <path
       id="path27"
       inkscape:label="part"
       style="fill:none;stroke:#ff0000;stroke-width:0.08819444;stroke-miterlimit:4;stroke-dasharray:none;stroke-opacity:1"
       d="m 170.55671,23.300713 v -4.064 h -4.572 v -8.128 h 4.572 V 7.0447131"
       inkscape:connector-curvature="0" />
    <g
       style="stroke-width:0.86003178;stroke-miterlimit:4;stroke-dasharray:none"
       inkscape:label="Hershey Text"
       transform="matrix(0.09882811,0,0,0.10640768,52.290502,15.274054)"
       id="g5054">
      <path
         inkscape:connector-curvature="0"
         d="M 953.24009,-4.4647489 V 16.535251 m 14,-20.9999999 -14,14 m 5,-5 9,11.9999999"
         style="fill:none;stroke:#0000ff;stroke-width:0.86003178;stroke-miterlimit:4;stroke-dasharray:none;stroke-opacity:1"
         id="path5042" />
      <path
         inkscape:connector-curvature="0"
         d="m 974.24009,4.5352511 h 18 m -18,5.9999999 h 18"
         style="fill:none;stroke:#0000ff;stroke-width:0.86003178;stroke-miterlimit:4;stroke-dasharray:none;stroke-opacity:1"
         id="path5044" />
      <path
         inkscape:connector-curvature="0"
         d="m 1005.2401,-4.4647489 -3,1 -2,2.99999996 -1.00001,5.00000004 v 3 l 1.00001,4.9999999 2,3 3,1 h 2 l 3,-1 2,-3 1,-4.9999999 v -3 l -1,-5.00000004 -2,-2.99999996 -3,-1 h -2"
         style="fill:none;stroke:#0000ff;stroke-width:0.86003178;stroke-miterlimit:4;stroke-dasharray:none;stroke-opacity:1"
         id="path5046" />
      <path
         inkscape:connector-curvature="0"
         d="m 1020.2401,11.535251 -1,1 1,1 1,-1 -1,-1"
         style="fill:none;stroke:#0000ff;stroke-width:0.86003178;stroke-miterlimit:4;stroke-dasharray:none;stroke-opacity:1"
         id="path5048" />
      <path
         inkscape:connector-curvature="0"
         d="m 1033.2401,-4.4647489 -3,1 -2,2.99999996 -1,5.00000004 v 3 l 1,4.9999999 2,3 3,1 h 2 l 3,-1 2,-3 1,-4.9999999 v -3 l -1,-5.00000004 -2,-2.99999996 -3,-1 h -2"
         style="fill:none;stroke:#0000ff;stroke-width:0.86003178;stroke-miterlimit:4;stroke-dasharray:none;stroke-opacity:1"
         id="path5050" />
      <path
         inkscape:connector-curvature="0"
         d="m 1048.2401,0.53525106 v -1 l 1,-1.99999996 1,-1 2,-1 h 4 l 2,1 1,1 1,1.99999996 V 1.5352511 l -1,2 -2,3 -10,9.9999999 h 14"
         style="fill:none;stroke:#0000ff;stroke-width:0.86003178;stroke-miterlimit:4;stroke-dasharray:none;stroke-opacity:1"
         id="path5052" />
      <g
         id="g5774"
         transform="matrix(2.0446295,0,0,1.863122,-430.48189,-51.726161)"
         inkscape:label="Hershey Text">
        <path
           id="path5772"
           style="fill:none;stroke:#0000ff;stroke-width:0.44064265;stroke-miterlimit:4;stroke-dasharray:none;stroke-opacity:1"
           d="M 468.2602,-7.9555783 V 13.044422 m 0,-21.0000003 h 9 l 3,1 1,1 1,2 v 2 l -1,2.00000001 -1,0.99999999 -3,1 m -9,0 h 9 l 3,1 1,1 1,2 v 3 l -1,2.0000003 -1,1 -3,1 h -9"
           inkscape:connector-curvature="0" />
        <path
           id="path5772-0"
           style="fill:none;stroke:#0000ff;stroke-width:0.44064268;stroke-miterlimit:4;stroke-dasharray:none;stroke-opacity:1"
           d="M 606.8354,-9.9529563 V 11.047043 m 0,-20.9999993 h 9 l 3,1 1,1 1,2.0000005 v 2 l -1,1.9999999 -1,1.00000001 -3,1.0000001 m -9,0 h 9 l 3,0.99999999 1,1 1,2 v 3 l -1,1.9999995 -1,1.0000003 -3,0.999999 h -9"
           inkscape:connector-curvature="0" />
        <g
           inkscape:label="Hershey Text"
           transform="matrix(0.57981507,0,0,0.72454137,-11.421034,29.091529)"
           id="g6442">
          <path
             inkscape:connector-curvature="0"
             d="M 804.70391,-6.4179561 V 14.582044 m 14,-21.0000001 -14,14 m 5,-5 9,12.0000001"
             style="fill:none;stroke:#0000ff;stroke-width:0.67984545;stroke-miterlimit:4;stroke-dasharray:none;stroke-opacity:1"
             id="path6430" />
          <path
             inkscape:connector-curvature="0"
             d="m 825.70391,2.5820439 h 18 m -18,6 h 18"
             style="fill:none;stroke:#0000ff;stroke-width:0.67984545;stroke-miterlimit:4;stroke-dasharray:none;stroke-opacity:1"
             id="path6432" />
          <path
             inkscape:connector-curvature="0"
             d="m 856.70391,-6.4179561 -3,1 -2,3 -1,5 v 3 l 1,5.0000001 2,3 3,1 h 2 l 3,-1 2,-3 1,-5.0000001 v -3 l -1,-5 -2,-3 -3,-1 h -2"
             style="fill:none;stroke:#0000ff;stroke-width:0.67984545;stroke-miterlimit:4;stroke-dasharray:none;stroke-opacity:1"
             id="path6434" />
          <path
             inkscape:connector-curvature="0"
             d="m 871.70391,9.5820439 -1,1.0000001 1,1 1,-1 -1,-1.0000001"
             style="fill:none;stroke:#0000ff;stroke-width:0.67984545;stroke-miterlimit:4;stroke-dasharray:none;stroke-opacity:1"
             id="path6436" />
          <path
             inkscape:connector-curvature="0"
             d="m 884.70391,-6.4179561 -3,1 -2,3 -1,5 v 3 l 1,5.0000001 2,3 3,1 h 2 l 3,-1 2,-3 1,-5.0000001 v -3 l -1,-5 -2,-3 -3,-1 h -2"
             style="fill:none;stroke:#0000ff;stroke-width:0.67984545;stroke-miterlimit:4;stroke-dasharray:none;stroke-opacity:1"
             id="path6438" />
          <path
             inkscape:connector-curvature="0"
             d="m 901.70391,-2.4179561 2,-1 3,-3 V 14.582044"
             style="fill:none;stroke:#0000ff;stroke-width:0.67984545;stroke-miterlimit:4;stroke-dasharray:none;stroke-opacity:1"
             id="path6440" />
        </g>
      </g>
    </g>
  </g>
  <g
     id="g30"
     inkscape:groupmode="layer"
     inkscape:label="newlayer" />
  <g
     id="g5245"
     transform="matrix(0.16141667,0,0,0.15843466,148.19207,11.577672)"
     inkscape:label="Hershey Text">
    <path
       id="path5243"
       transform="translate(9)"
       style="fill:none;stroke:#0000ff;stroke-width:0.55149543;stroke-miterlimit:4;stroke-dasharray:none;stroke-opacity:1"
       d="M 0,-12 -8,9 M 0,-12 8,9 M -5,2 H 5"
       inkscape:connector-curvature="0" />
  </g>
  <path
     id="path5243-9"
     style="fill:none;stroke:#0000ff;stroke-width:0.08819444;stroke-miterlimit:4;stroke-dasharray:none;stroke-opacity:1"
     d="m 177.6006,8.8903196 -1.29133,3.3271284 m 1.29133,-3.3271284 1.29134,3.3271284 m -2.09842,-1.109043 h 1.61417"
     inkscape:connector-curvature="0" />
  <g
     inkscape:label="newlayer"
     inkscape:groupmode="layer"
     id="g5705" />
  <path
     inkscape:connector-curvature="0"
     d="m 99.653604,6.6438088 h 4.190996 v 0 h 7.874 v 0 h 8.763"
     style="fill:none;stroke:#ff0000;stroke-width:0.08819444;stroke-miterlimit:4;stroke-dasharray:none;stroke-opacity:1"
     inkscape:label="part"
     id="path5707" />
  <path
     inkscape:connector-curvature="0"
     d="m 120.4816,6.6438088 v 4.4449992 h -4.572 v 7.366001 h 4.572 v 4.444999"
     style="fill:none;stroke:#ff0000;stroke-width:0.08819444;stroke-miterlimit:4;stroke-dasharray:none;stroke-opacity:1"
     inkscape:label="part"
     id="path5709" />
  <path
     inkscape:connector-curvature="0"
     d="m 120.4816,22.899808 h -8.763 v 0 h -7.874 v 0 h -4.190996"
     style="fill:none;stroke:#ff0000;stroke-width:0.08819444;stroke-miterlimit:4;stroke-dasharray:none;stroke-opacity:1"
     inkscape:label="part"
     id="path5711" />
  <path
     inkscape:connector-curvature="0"
     d="m 99.653604,22.899808 v -4.190999 0 -7.874001 0 -4.1909992"
     style="fill:none;stroke:#ff0000;stroke-width:0.08819444;stroke-miterlimit:4;stroke-dasharray:none;stroke-opacity:1"
     inkscape:label="part"
     id="path5713" />
  <path
     inkscape:connector-curvature="0"
     d="m 126.3236,6.6438088 h 4.191 v 0 h 7.874 v 0 h 4.191"
     style="fill:none;stroke:#ff0000;stroke-width:0.08819444;stroke-miterlimit:4;stroke-dasharray:none;stroke-opacity:1"
     inkscape:label="part"
     id="path5715" />
  <path
     inkscape:connector-curvature="0"
     d="m 142.5796,6.6438088 v 4.1909992 0 7.874001 0 4.190999"
     style="fill:none;stroke:#ff0000;stroke-width:0.08819444;stroke-miterlimit:4;stroke-dasharray:none;stroke-opacity:1"
     inkscape:label="part"
     id="path5717" />
  <path
     inkscape:connector-curvature="0"
     d="m 142.5796,22.899808 h -4.191 v 0 h -7.874 v 0 h -4.191"
     style="fill:none;stroke:#ff0000;stroke-width:0.08819444;stroke-miterlimit:4;stroke-dasharray:none;stroke-opacity:1"
     inkscape:label="part"
     id="path5719" />
  <path
     inkscape:connector-curvature="0"
     d="m 126.3236,22.899808 v -4.190999 h -4.572 v -7.874001 h 4.572 V 6.6438088"
     style="fill:none;stroke:#ff0000;stroke-width:0.08819444;stroke-miterlimit:4;stroke-dasharray:none;stroke-opacity:1"
     inkscape:label="part"
     id="path5721" />
  <g
     id="g1828"
     inkscape:groupmode="layer"
     inkscape:label="newlayer" />
  <g
     inkscape:label="newlayer"
     inkscape:groupmode="layer"
     id="g904" />
  <path
     inkscape:connector-curvature="0"
     d="m 52.52206,6.2199764 h 3.793066 v 0 h 8.669867 v 0 h 8.365067"
     style="fill:none;stroke:#ff0000;stroke-width:0.08819444;stroke-miterlimit:4;stroke-dasharray:none;stroke-opacity:1"
     inkscape:label="part"
     id="path906" />
  <path
     inkscape:connector-curvature="0"
     d="m 73.35006,6.2199764 v 3.9962666 h -4.572001 v 8.263467 h 4.572001 v 3.996266"
     style="fill:none;stroke:#ff0000;stroke-width:0.08819444;stroke-miterlimit:4;stroke-dasharray:none;stroke-opacity:1"
     inkscape:label="part"
     id="path908" />
  <path
     inkscape:connector-curvature="0"
     d="m 73.35006,22.475976 h -8.365067 v 0 h -8.669867 v 0 H 52.52206"
     style="fill:none;stroke:#ff0000;stroke-width:0.08819444;stroke-miterlimit:4;stroke-dasharray:none;stroke-opacity:1"
     inkscape:label="part"
     id="path910" />
  <path
     inkscape:connector-curvature="0"
     d="m 52.52206,22.475976 v -3.793066 0 -8.669867 0 -3.7930666"
     style="fill:none;stroke:#ff0000;stroke-width:0.08819444;stroke-miterlimit:4;stroke-dasharray:none;stroke-opacity:1"
     inkscape:label="part"
     id="path912" />
  <path
     inkscape:connector-curvature="0"
     d="m 79.19206,6.2199764 h 3.793066 v 0 h 8.669867 v 0 h 3.793067"
     style="fill:none;stroke:#ff0000;stroke-width:0.08819444;stroke-miterlimit:4;stroke-dasharray:none;stroke-opacity:1"
     inkscape:label="part"
     id="path914" />
  <path
     inkscape:connector-curvature="0"
     d="m 95.44806,6.2199764 v 3.7930666 0 8.669867 0 3.793066"
     style="fill:none;stroke:#ff0000;stroke-width:0.08819444;stroke-miterlimit:4;stroke-dasharray:none;stroke-opacity:1"
     inkscape:label="part"
     id="path916" />
  <path
     inkscape:connector-curvature="0"
     d="m 95.44806,22.475976 h -3.793067 v 0 h -8.669867 v 0 H 79.19206"
     style="fill:none;stroke:#ff0000;stroke-width:0.08819444;stroke-miterlimit:4;stroke-dasharray:none;stroke-opacity:1"
     inkscape:label="part"
     id="path918" />
  <path
     inkscape:connector-curvature="0"
     d="M 79.19206,22.475976 V 18.68291 h -4.572 v -8.669867 h 4.572 V 6.2199764"
     style="fill:none;stroke:#ff0000;stroke-width:0.08819444;stroke-miterlimit:4;stroke-dasharray:none;stroke-opacity:1"
     inkscape:label="part"
     id="path920" />
  <g
     id="g1042"
     transform="matrix(0.10694472,0,0,0.15836727,53.266489,15.624798)"
     inkscape:label="Hershey Text"
     style="stroke-width:0.6776865;stroke-miterlimit:4;stroke-dasharray:none">
    <path
       id="path1028"
       transform="translate(11)"
       style="fill:none;stroke:#0000ff;stroke-opacity:1;stroke-width:0.6776865;stroke-miterlimit:4;stroke-dasharray:none"
       d="M -7,-12 V 9 M 7,-12 -7,2 m 5,-5 9,12"
       inkscape:connector-curvature="0" />
    <path
       id="path1030"
       transform="translate(34)"
       style="fill:none;stroke:#0000ff;stroke-opacity:1;stroke-width:0.6776865;stroke-miterlimit:4;stroke-dasharray:none"
       d="M -9,-3 H 9 M -9,3 H 9"
       inkscape:connector-curvature="0" />
    <path
       id="path1032"
       transform="translate(57)"
       style="fill:none;stroke:#0000ff;stroke-opacity:1;stroke-width:0.6776865;stroke-miterlimit:4;stroke-dasharray:none"
       d="m -1,-12 -3,1 -2,3 -1,5 v 3 l 1,5 2,3 3,1 H 1 L 4,8 6,5 7,0 V -3 L 6,-8 4,-11 1,-12 h -2"
       inkscape:connector-curvature="0" />
    <path
       id="path1034"
       transform="translate(71)"
       style="fill:none;stroke:#0000ff;stroke-opacity:1;stroke-width:0.6776865;stroke-miterlimit:4;stroke-dasharray:none"
       d="M 0,4 -1,5 0,6 1,5 0,4"
       inkscape:connector-curvature="0" />
    <path
       id="path1036"
       transform="translate(85)"
       style="fill:none;stroke:#0000ff;stroke-opacity:1;stroke-width:0.6776865;stroke-miterlimit:4;stroke-dasharray:none"
       d="m -1,-12 -3,1 -2,3 -1,5 v 3 l 1,5 2,3 3,1 H 1 L 4,8 6,5 7,0 V -3 L 6,-8 4,-11 1,-12 h -2"
       inkscape:connector-curvature="0" />
    <path
       id="path1038"
       transform="translate(105)"
       style="fill:none;stroke:#0000ff;stroke-opacity:1;stroke-width:0.6776865;stroke-miterlimit:4;stroke-dasharray:none"
       d="m -1,-12 -3,1 -2,3 -1,5 v 3 l 1,5 2,3 3,1 H 1 L 4,8 6,5 7,0 V -3 L 6,-8 4,-11 1,-12 h -2"
       inkscape:connector-curvature="0" />
    <path
       id="path1040"
       transform="translate(125)"
       style="fill:none;stroke:#0000ff;stroke-opacity:1;stroke-width:0.6776865;stroke-miterlimit:4;stroke-dasharray:none"
       d="m -2,-12 -3,1 -1,2 v 2 l 1,2 2,1 4,1 3,1 2,2 1,2 V 5 L 6,7 5,8 2,9 H -2 L -5,8 -6,7 -7,5 V 2 l 1,-2 2,-2 3,-1 4,-1 2,-1 1,-2 v -2 l -1,-2 -3,-1 h -4"
       inkscape:connector-curvature="0" />
  </g>
  <g
     style="stroke:#0000ff;stroke-opacity:1;stroke-width:0.53929213;stroke-miterlimit:4;stroke-dasharray:none"
     inkscape:label="Hershey Text"
     transform="matrix(0.16887642,0,0,0.15836721,57.88427,10.000608)"
     id="g1168">
    <path
       inkscape:connector-curvature="0"
       d="M 8,-7 7,-9 5,-11 3,-12 h -4 l -2,1 -2,2 -1,2 -1,3 v 5 l 1,3 1,2 2,2 2,1 H 3 L 5,8 7,6 8,4"
       style="fill:none;stroke:#0000ff;stroke-opacity:1;stroke-width:0.53929213;stroke-miterlimit:4;stroke-dasharray:none"
       transform="translate(10)"
       id="path1166" />
  </g>
  <g
     id="g1235"
     transform="matrix(0.16887642,0,0,0.15836721,84.626086,9.7171259)"
     inkscape:label="Hershey Text"
     style="stroke:#0000ff;stroke-opacity:1">
    <path
       id="path1233"
       transform="translate(10)"
       style="fill:none;stroke:#0000ff;stroke-opacity:1;stroke-width:0.53929213;stroke-miterlimit:4;stroke-dasharray:none"
       d="M 8,-7 7,-9 5,-11 3,-12 h -4 l -2,1 -2,2 -1,2 -1,3 v 5 l 1,3 1,2 2,2 2,1 H 3 L 5,8 7,6 8,4"
       inkscape:connector-curvature="0" />
  </g>
  <g
     id="g1302"
     inkscape:groupmode="layer"
     inkscape:label="newlayer" />
  <path
     id="path1304"
     inkscape:label="part"
     style="stroke:#ff0000;stroke-width:0.08819444;fill:none;stroke-opacity:1;stroke-miterlimit:4;stroke-dasharray:none"
     d="M 5.8420002005,5.8420002005 L 9.68586668299,5.8420002005 L 9.68586668299,5.8420002005 L 18.2541333543,5.8420002005 L 18.2541333543,5.8420002005 L 26.6700000184,5.8420002005 " />
  <path
     id="path1306"
     inkscape:label="part"
     style="stroke:#ff0000;stroke-width:0.08819444;fill:none;stroke-opacity:1;stroke-miterlimit:4;stroke-dasharray:none"
     d="M 26.6700000184,5.8420002005 L 26.6700000184,9.78746668781 L 22.0979998368,9.78746668781 L 22.0979998368,18.1525333495 L 26.6700000184,18.1525333495 L 26.6700000184,22.0979998368 " />
  <path
     id="path1308"
     inkscape:label="part"
     style="stroke:#ff0000;stroke-width:0.08819444;fill:none;stroke-opacity:1;stroke-miterlimit:4;stroke-dasharray:none"
     d="M 26.6700000184,22.0979998368 L 18.2541333543,22.0979998368 L 18.2541333543,22.0979998368 L 9.68586668299,22.0979998368 L 9.68586668299,22.0979998368 L 5.8420002005,22.0979998368 " />
  <path
     id="path1310"
     inkscape:label="part"
     style="stroke:#ff0000;stroke-width:0.08819444;fill:none;stroke-opacity:1;stroke-miterlimit:4;stroke-dasharray:none"
     d="M 5.8420002005,22.0979998368 L 5.8420002005,18.2541333543 L 5.8420002005,18.2541333543 L 5.8420002005,9.68586668299 L 5.8420002005,9.68586668299 L 5.8420002005,5.8420002005 " />
  <path
     id="path1312"
     inkscape:label="part"
     style="stroke:#ff0000;stroke-width:0.08819444;fill:none;stroke-opacity:1;stroke-miterlimit:4;stroke-dasharray:none"
     d="M 32.5120002189,5.8420002005 L 36.3558667014,5.8420002005 L 36.3558667014,5.8420002005 L 44.9241333727,5.8420002005 L 44.9241333727,5.8420002005 L 48.7679998552,5.8420002005 " />
  <path
     id="path1314"
     inkscape:label="part"
     style="stroke:#ff0000;stroke-width:0.08819444;fill:none;stroke-opacity:1;stroke-miterlimit:4;stroke-dasharray:none"
     d="M 48.7679998552,5.8420002005 L 48.7679998552,9.68586668299 L 48.7679998552,9.68586668299 L 48.7679998552,18.2541333543 L 48.7679998552,18.2541333543 L 48.7679998552,22.0979998368 " />
  <path
     id="path1316"
     inkscape:label="part"
     style="stroke:#ff0000;stroke-width:0.08819444;fill:none;stroke-opacity:1;stroke-miterlimit:4;stroke-dasharray:none"
     d="M 48.7679998552,22.0979998368 L 44.9241333727,22.0979998368 L 44.9241333727,22.0979998368 L 36.3558667014,22.0979998368 L 36.3558667014,22.0979998368 L 32.5120002189,22.0979998368 " />
  <path
     id="path1318"
     inkscape:label="part"
     style="stroke:#ff0000;stroke-width:0.08819444;fill:none;stroke-opacity:1;stroke-miterlimit:4;stroke-dasharray:none"
     d="M 32.5120002189,22.0979998368 L 32.5120002189,18.2541333543 L 27.9400000373,18.2541333543 L 27.9400000373,9.68586668299 L 32.5120002189,9.68586668299 L 32.5120002189,5.8420002005 " />
  <g
     inkscape:label="Hershey Text"
     transform="matrix(0.18999966,0,0,0.16086429,11.626931,8.8722196)"
     id="g1470"
     style="stroke-width:0.50446959;stroke-miterlimit:4;stroke-dasharray:none;stroke:#0000ff;stroke-opacity:1">
    <path
       inkscape:connector-curvature="0"
       d="M -7,-12 V 9 m 0,-21 h 7 l 3,1 2,2 1,2 1,3 V 1 L 6,4 5,6 3,8 0,9 h -7"
       style="fill:none;stroke:#0000ff;stroke-width:0.50446959;stroke-miterlimit:4;stroke-dasharray:none;stroke-opacity:1"
       transform="translate(11)"
       id="path1468" />
  </g>
  <g
     id="g1638"
     transform="matrix(0.10829808,0,0,0.16245722,6.5807171,15.111216)"
     inkscape:label="Hershey Text"
     style="stroke-width:0.66490766;stroke-miterlimit:4;stroke-dasharray:none;stroke:#0000ff;stroke-opacity:1">
    <path
       id="path1624"
       transform="translate(11)"
       style="fill:none;stroke:#0000ff;stroke-width:0.66490766;stroke-miterlimit:4;stroke-dasharray:none;stroke-opacity:1"
       d="M -7,-12 V 9 M 7,-12 -7,2 m 5,-5 9,12"
       inkscape:connector-curvature="0" />
    <path
       id="path1626"
       transform="translate(34)"
       style="fill:none;stroke:#0000ff;stroke-width:0.66490766;stroke-miterlimit:4;stroke-dasharray:none;stroke-opacity:1"
       d="M -9,-3 H 9 M -9,3 H 9"
       inkscape:connector-curvature="0" />
    <path
       id="path1628"
       transform="translate(57)"
       style="fill:none;stroke:#0000ff;stroke-width:0.66490766;stroke-miterlimit:4;stroke-dasharray:none;stroke-opacity:1"
       d="m -1,-12 -3,1 -2,3 -1,5 v 3 l 1,5 2,3 3,1 H 1 L 4,8 6,5 7,0 V -3 L 6,-8 4,-11 1,-12 h -2"
       inkscape:connector-curvature="0" />
    <path
       id="path1630"
       transform="translate(71)"
       style="fill:none;stroke:#0000ff;stroke-width:0.66490766;stroke-miterlimit:4;stroke-dasharray:none;stroke-opacity:1"
       d="M 0,4 -1,5 0,6 1,5 0,4"
       inkscape:connector-curvature="0" />
    <path
       id="path1632"
       transform="translate(85)"
       style="fill:none;stroke:#0000ff;stroke-width:0.66490766;stroke-miterlimit:4;stroke-dasharray:none;stroke-opacity:1"
       d="m -1,-12 -3,1 -2,3 -1,5 v 3 l 1,5 2,3 3,1 H 1 L 4,8 6,5 7,0 V -3 L 6,-8 4,-11 1,-12 h -2"
       inkscape:connector-curvature="0" />
    <path
       id="path1634"
       transform="translate(105)"
       style="fill:none;stroke:#0000ff;stroke-width:0.66490766;stroke-miterlimit:4;stroke-dasharray:none;stroke-opacity:1"
       d="m -1,-12 -3,1 -2,3 -1,5 v 3 l 1,5 2,3 3,1 H 1 L 4,8 6,5 7,0 V -3 L 6,-8 4,-11 1,-12 h -2"
       inkscape:connector-curvature="0" />
    <path
       id="path1636"
       transform="translate(125)"
       style="fill:none;stroke:#0000ff;stroke-width:0.66490766;stroke-miterlimit:4;stroke-dasharray:none;stroke-opacity:1"
       d="M 3,-12 -7,2 H 8 M 3,-12 V 9"
       inkscape:connector-curvature="0" />
  </g>
  <g
     style="stroke:#0000ff;stroke-width:0.50446957;stroke-miterlimit:4;stroke-dasharray:none;stroke-opacity:1"
     id="g1726"
     transform="matrix(0.18999966,0,0,0.16086429,38.554336,8.6383588)"
     inkscape:label="Hershey Text">
    <path
       id="path1724"
       transform="translate(11)"
       style="fill:none;stroke:#0000ff;stroke-width:0.50446957;stroke-miterlimit:4;stroke-dasharray:none;stroke-opacity:1"
       d="M -7,-12 V 9 m 0,-21 h 7 l 3,1 2,2 1,2 1,3 V 1 L 6,4 5,6 3,8 0,9 h -7"
       inkscape:connector-curvature="0" />
  </g>
</svg>
